<mxfile host="Electron" agent="Mozilla/5.0 (Windows NT 10.0; Win64; x64) AppleWebKit/537.36 (KHTML, like Gecko) draw.io/28.0.6 Chrome/138.0.7204.100 Electron/37.2.3 Safari/537.36" version="28.0.6">
  <diagram name="Page-1" id="AQFmw8MBmqZpFMUQ2SbD">
    <mxGraphModel dx="1588" dy="701" grid="0" gridSize="10" guides="1" tooltips="1" connect="1" arrows="1" fold="1" page="0" pageScale="1" pageWidth="850" pageHeight="1100" math="0" shadow="0">
      <root>
        <mxCell id="0" />
        <mxCell id="1" parent="0" />
        <mxCell id="zuOWmiZAYYt0SM-_RVXj-7" style="edgeStyle=orthogonalEdgeStyle;rounded=0;orthogonalLoop=1;jettySize=auto;html=1;" edge="1" parent="1" source="zuOWmiZAYYt0SM-_RVXj-2" target="zuOWmiZAYYt0SM-_RVXj-6">
          <mxGeometry relative="1" as="geometry" />
        </mxCell>
        <mxCell id="zuOWmiZAYYt0SM-_RVXj-2" value="cucumber" style="whiteSpace=wrap;html=1;" vertex="1" parent="1">
          <mxGeometry x="462" y="246" width="120" height="60" as="geometry" />
        </mxCell>
        <mxCell id="zuOWmiZAYYt0SM-_RVXj-27" style="edgeStyle=orthogonalEdgeStyle;rounded=0;orthogonalLoop=1;jettySize=auto;html=1;curved=1;" edge="1" parent="1" source="zuOWmiZAYYt0SM-_RVXj-3">
          <mxGeometry relative="1" as="geometry">
            <mxPoint x="9" y="512" as="targetPoint" />
          </mxGeometry>
        </mxCell>
        <mxCell id="zuOWmiZAYYt0SM-_RVXj-31" value="glues" style="edgeLabel;html=1;align=center;verticalAlign=middle;resizable=0;points=[];" vertex="1" connectable="0" parent="zuOWmiZAYYt0SM-_RVXj-27">
          <mxGeometry x="-0.2045" y="-29" relative="1" as="geometry">
            <mxPoint as="offset" />
          </mxGeometry>
        </mxCell>
        <mxCell id="zuOWmiZAYYt0SM-_RVXj-29" style="edgeStyle=orthogonalEdgeStyle;rounded=0;orthogonalLoop=1;jettySize=auto;html=1;entryX=0.5;entryY=1;entryDx=0;entryDy=0;curved=1;" edge="1" parent="1" source="zuOWmiZAYYt0SM-_RVXj-3" target="zuOWmiZAYYt0SM-_RVXj-6">
          <mxGeometry relative="1" as="geometry" />
        </mxCell>
        <mxCell id="zuOWmiZAYYt0SM-_RVXj-30" value="glues" style="edgeLabel;html=1;align=center;verticalAlign=middle;resizable=0;points=[];" vertex="1" connectable="0" parent="zuOWmiZAYYt0SM-_RVXj-29">
          <mxGeometry x="-0.242" y="26" relative="1" as="geometry">
            <mxPoint as="offset" />
          </mxGeometry>
        </mxCell>
        <mxCell id="zuOWmiZAYYt0SM-_RVXj-11" style="edgeStyle=orthogonalEdgeStyle;rounded=0;orthogonalLoop=1;jettySize=auto;html=1;entryX=1;entryY=0.5;entryDx=0;entryDy=0;" edge="1" parent="1" source="zuOWmiZAYYt0SM-_RVXj-6" target="zuOWmiZAYYt0SM-_RVXj-9">
          <mxGeometry relative="1" as="geometry" />
        </mxCell>
        <mxCell id="zuOWmiZAYYt0SM-_RVXj-12" value="implements" style="edgeLabel;html=1;align=center;verticalAlign=middle;resizable=0;points=[];" vertex="1" connectable="0" parent="zuOWmiZAYYt0SM-_RVXj-11">
          <mxGeometry x="0.0794" y="-4" relative="1" as="geometry">
            <mxPoint as="offset" />
          </mxGeometry>
        </mxCell>
        <mxCell id="zuOWmiZAYYt0SM-_RVXj-6" value="feature file" style="whiteSpace=wrap;html=1;" vertex="1" parent="1">
          <mxGeometry x="462" y="447" width="120" height="60" as="geometry" />
        </mxCell>
        <mxCell id="zuOWmiZAYYt0SM-_RVXj-10" style="edgeStyle=orthogonalEdgeStyle;rounded=0;orthogonalLoop=1;jettySize=auto;html=1;" edge="1" parent="1" source="zuOWmiZAYYt0SM-_RVXj-8" target="zuOWmiZAYYt0SM-_RVXj-9">
          <mxGeometry relative="1" as="geometry" />
        </mxCell>
        <mxCell id="zuOWmiZAYYt0SM-_RVXj-8" value="java" style="whiteSpace=wrap;html=1;" vertex="1" parent="1">
          <mxGeometry x="-69" y="246" width="120" height="60" as="geometry" />
        </mxCell>
        <mxCell id="zuOWmiZAYYt0SM-_RVXj-13" style="edgeStyle=orthogonalEdgeStyle;rounded=0;orthogonalLoop=1;jettySize=auto;html=1;" edge="1" parent="1" source="zuOWmiZAYYt0SM-_RVXj-9" target="zuOWmiZAYYt0SM-_RVXj-1">
          <mxGeometry relative="1" as="geometry" />
        </mxCell>
        <mxCell id="zuOWmiZAYYt0SM-_RVXj-9" value="step deifinitions class" style="whiteSpace=wrap;html=1;" vertex="1" parent="1">
          <mxGeometry x="-69" y="447" width="120" height="60" as="geometry" />
        </mxCell>
        <mxCell id="zuOWmiZAYYt0SM-_RVXj-34" value="" style="group" vertex="1" connectable="0" parent="1">
          <mxGeometry x="-69" y="666" width="120" height="88" as="geometry" />
        </mxCell>
        <mxCell id="zuOWmiZAYYt0SM-_RVXj-1" value="selenium&amp;nbsp;" style="whiteSpace=wrap;html=1;" vertex="1" parent="zuOWmiZAYYt0SM-_RVXj-34">
          <mxGeometry width="120" height="60" as="geometry" />
        </mxCell>
        <mxCell id="zuOWmiZAYYt0SM-_RVXj-33" value="steps implementation" style="whiteSpace=wrap;html=1;" vertex="1" parent="zuOWmiZAYYt0SM-_RVXj-34">
          <mxGeometry y="60" width="120" height="28" as="geometry" />
        </mxCell>
        <mxCell id="zuOWmiZAYYt0SM-_RVXj-36" value="" style="group" vertex="1" connectable="0" parent="1">
          <mxGeometry x="202" y="631" width="120" height="82" as="geometry" />
        </mxCell>
        <mxCell id="zuOWmiZAYYt0SM-_RVXj-3" value="TestRunner class" style="whiteSpace=wrap;html=1;" vertex="1" parent="zuOWmiZAYYt0SM-_RVXj-36">
          <mxGeometry width="120" height="60" as="geometry" />
        </mxCell>
        <mxCell id="zuOWmiZAYYt0SM-_RVXj-35" value="JUnit" style="whiteSpace=wrap;html=1;" vertex="1" parent="zuOWmiZAYYt0SM-_RVXj-36">
          <mxGeometry y="60" width="120" height="22" as="geometry" />
        </mxCell>
      </root>
    </mxGraphModel>
  </diagram>
</mxfile>
